<?xml version="1.0" standalone="no"?>
<svg xmlns="http://www.w3.org/2000/svg" xmlns:xlink="http://www.w3.org/1999/xlink" width="520pt" height="1773pt" viewBox="0.00 0.00 519.90 1773.00">
<g id="graph0" class="graph" transform="translate(4,1769) scale(1)" data-name="G">

<polygon fill="#2e3e56" stroke="none" points="-4,4 -4,-1769 515.9,-1769 515.9,4 -4,4" style=""/>
<g id="clust1" class="cluster" data-name="clusterPrescription">

<path fill="#445773" stroke="#445773" d="M20,-1017C20,-1017 262.19,-1017 262.19,-1017 268.19,-1017 274.19,-1023 274.19,-1029 274.19,-1029 274.19,-1608 274.19,-1608 274.19,-1614 268.19,-1620 262.19,-1620 262.19,-1620 20,-1620 20,-1620 14,-1620 8,-1614 8,-1608 8,-1608 8,-1029 8,-1029 8,-1023 14,-1017 20,-1017" style=""/>
<text text-anchor="middle" x="141.1" y="-1603.4" font-family="Times,serif" font-size="14.00" fill="#f0f0f0" style="">Prescription</text>
</g>
<g id="clust2" class="cluster" data-name="clusterDispenseMedicine">

<path fill="#445773" stroke="#445773" d="M21.16,-344C21.16,-344 261.03,-344 261.03,-344 267.03,-344 273.03,-350 273.03,-356 273.03,-356 273.03,-997 273.03,-997 273.03,-1003 267.03,-1009 261.03,-1009 261.03,-1009 21.16,-1009 21.16,-1009 15.16,-1009 9.16,-1003 9.16,-997 9.16,-997 9.16,-356 9.16,-356 9.16,-350 15.16,-344 21.16,-344" style=""/>
<text text-anchor="middle" x="141.1" y="-992.4" font-family="Times,serif" font-size="14.00" fill="#f0f0f0" style="">DispenseMedicine</text>
</g>
<g id="clust3" class="cluster" data-name="clusterMedicine">

<path fill="#445773" stroke="#445773" d="M306.19,-8C306.19,-8 491.9,-8 491.9,-8 497.9,-8 503.9,-14 503.9,-20 503.9,-20 503.9,-629 503.9,-629 503.9,-635 497.9,-641 491.9,-641 491.9,-641 306.19,-641 306.19,-641 300.19,-641 294.19,-635 294.19,-629 294.19,-629 294.19,-20 294.19,-20 294.19,-14 300.19,-8 306.19,-8" style=""/>
<text text-anchor="middle" x="399.05" y="-624.4" font-family="Times,serif" font-size="14.00" fill="#f0f0f0" style="">Medicine</text>
</g>
<g id="clust4" class="cluster" data-name="cluster_01">

<polygon fill="#2e3e56" stroke="black" points="68.1,-1628 68.1,-1757 434.05,-1757 434.05,-1628 68.1,-1628" style=""/>
<text text-anchor="middle" x="251.07" y="-1740.4" font-family="Times,serif" font-size="14.00" style="">Legend</text>
</g>
<!-- Prescription.&lt;Constructor&gt; -->
<g id="node1" class="node" pointer-events="visible" data-name="Prescription.&lt;Constructor&gt;">

<ellipse fill="#ff9797" stroke="#ff9797" stroke-width="3" cx="141.1" cy="-1569" rx="67.55" ry="18" style=""/>
<text text-anchor="middle" x="141.1" y="-1564.8" font-family="Times,serif" font-size="14.00" style="">&lt;Constructor&gt;</text>
</g>
<!-- Prescription.addPrescription -->
<g id="node2" class="node" pointer-events="visible" data-name="Prescription.addPrescription">

<ellipse fill="#ff9797" stroke="#ff9797" stroke-width="3" cx="141.1" cy="-1515" rx="71.79" ry="18" style=""/>
<text text-anchor="middle" x="141.1" y="-1510.8" font-family="Times,serif" font-size="14.00" style="">addPrescription</text>
</g>
<!-- Prescription.payToDoctor -->
<g id="node3" class="node" pointer-events="visible" data-name="Prescription.payToDoctor">

<ellipse fill="#ffbdb9" stroke="brown" stroke-width="3" cx="141.1" cy="-1461" rx="62.55" ry="18" style=""/>
<text text-anchor="middle" x="141.1" y="-1456.8" font-family="Times,serif" font-size="14.00" style="">payToDoctor</text>
</g>
<!-- Prescription.getPrescriptionDetails -->
<g id="node4" class="node" pointer-events="visible" data-name="Prescription.getPrescriptionDetails">

<ellipse fill="#ff9797" stroke="#ff9797" stroke-width="3" cx="141.1" cy="-1407" rx="96.71" ry="18" style=""/>
<text text-anchor="middle" x="141.1" y="-1402.8" font-family="Times,serif" font-size="14.00" style="">getPrescriptionDetails</text>
</g>
<!-- Prescription.onlyOwner -->
<g id="node5" class="node" pointer-events="visible" data-name="Prescription.onlyOwner">

<polygon fill="#edad56" stroke="#1bc6a6" stroke-width="3" points="200.04,-1341.54 200.04,-1356.46 165.51,-1367 116.68,-1367 82.15,-1356.46 82.15,-1341.54 116.68,-1331 165.51,-1331 200.04,-1341.54" style=""/>
<polygon fill="none" stroke="#1bc6a6" stroke-width="3" points="204.04,-1338.58 204.04,-1359.42 166.11,-1371 116.08,-1371 78.15,-1359.42 78.15,-1338.58 116.08,-1327 166.11,-1327 204.04,-1338.58" style=""/>
<text text-anchor="middle" x="141.1" y="-1344.8" font-family="Times,serif" font-size="14.00" style="">onlyOwner</text>
</g>
<!-- Prescription.addDoctor -->
<g id="node6" class="node" pointer-events="visible" data-name="Prescription.addDoctor">

<ellipse fill="#ff9797" stroke="#ff9797" stroke-width="3" cx="141.1" cy="-1291" rx="51.59" ry="18" style=""/>
<text text-anchor="middle" x="141.1" y="-1286.8" font-family="Times,serif" font-size="14.00" style="">addDoctor</text>
</g>
<!-- Prescription.onlyDoctor -->
<g id="node7" class="node" pointer-events="visible" data-name="Prescription.onlyDoctor">

<polygon fill="#edad56" stroke="#1bc6a6" stroke-width="3" points="200.7,-1225.54 200.7,-1240.46 165.79,-1251 116.41,-1251 81.49,-1240.46 81.49,-1225.54 116.41,-1215 165.79,-1215 200.7,-1225.54" style=""/>
<polygon fill="none" stroke="#1bc6a6" stroke-width="3" points="204.7,-1222.57 204.7,-1243.43 166.38,-1255 115.81,-1255 77.49,-1243.43 77.49,-1222.57 115.81,-1211 166.38,-1211 204.7,-1222.57" style=""/>
<text text-anchor="middle" x="141.1" y="-1228.8" font-family="Times,serif" font-size="14.00" style="">onlyDoctor</text>
</g>
<!-- Prescription.uniqueprescription -->
<g id="node8" class="node" pointer-events="visible" data-name="Prescription.uniqueprescription">

<polygon fill="#edad56" stroke="#1bc6a6" stroke-width="3" points="231.24,-1163.54 231.24,-1178.46 178.44,-1189 103.76,-1189 50.95,-1178.46 50.95,-1163.54 103.76,-1153 178.44,-1153 231.24,-1163.54" style=""/>
<polygon fill="none" stroke="#1bc6a6" stroke-width="3" points="235.24,-1160.26 235.24,-1181.74 178.83,-1193 103.36,-1193 46.96,-1181.74 46.96,-1160.26 103.36,-1149 178.83,-1149 235.24,-1160.26" style=""/>
<text text-anchor="middle" x="141.1" y="-1166.8" font-family="Times,serif" font-size="14.00" style="">uniqueprescription</text>
</g>
<!-- Prescription.onlyPaitentToprescription -->
<g id="node9" class="node" pointer-events="visible" data-name="Prescription.onlyPaitentToprescription">

<polygon fill="#edad56" stroke="#1bc6a6" stroke-width="3" points="262.28,-1101.54 262.28,-1116.46 191.29,-1127 90.9,-1127 19.91,-1116.46 19.91,-1101.54 90.9,-1091 191.29,-1091 262.28,-1101.54" style=""/>
<polygon fill="none" stroke="#1bc6a6" stroke-width="3" points="266.29,-1098.09 266.29,-1119.91 191.59,-1131 90.6,-1131 15.9,-1119.91 15.9,-1098.09 90.6,-1087 191.59,-1087 266.29,-1098.09" style=""/>
<text text-anchor="middle" x="141.1" y="-1104.8" font-family="Times,serif" font-size="14.00" style="">onlyPaitentToprescription</text>
</g>
<!-- Prescription.validMedicine -->
<g id="node10" class="node" pointer-events="visible" data-name="Prescription.validMedicine">

<polygon fill="#edad56" stroke="#1bc6a6" stroke-width="3" points="213.24,-1039.54 213.24,-1054.46 170.98,-1065 111.21,-1065 68.95,-1054.46 68.95,-1039.54 111.21,-1029 170.98,-1029 213.24,-1039.54" style=""/>
<polygon fill="none" stroke="#1bc6a6" stroke-width="3" points="217.23,-1036.42 217.23,-1057.58 171.47,-1069 110.72,-1069 64.96,-1057.58 64.96,-1036.42 110.72,-1025 171.47,-1025 217.23,-1036.42" style=""/>
<text text-anchor="middle" x="141.1" y="-1042.8" font-family="Times,serif" font-size="14.00" style="">validMedicine</text>
</g>
<!-- Medicine.medicineExists -->
<g id="node22" class="node" pointer-events="visible" data-name="Medicine.medicineExists">

<ellipse fill="#edad56" stroke="#edad56" stroke-width="3" cx="399.05" cy="-590" rx="70.08" ry="18" style=""/>
<text text-anchor="middle" x="399.05" y="-585.8" font-family="Times,serif" font-size="14.00" style="">medicineExists</text>
</g>
<!-- Prescription.validMedicine&#45;&gt;Medicine.medicineExists -->
<g id="edge1" class="edge" data-name="Prescription.validMedicine-&gt;Medicine.medicineExists">

<path fill="none" stroke="white" stroke-width="2" d="M218.4,-1041.1C238.7,-1036.13 259.13,-1027.57 274.19,-1013 386.25,-904.58 398.39,-700.76 398.68,-622.1" style=""/>
<polygon fill="white" stroke="white" stroke-width="2" points="402.18,-622.35 398.63,-612.36 395.18,-622.38 402.18,-622.35" style=""/>
</g>
<!-- DispenseMedicine.&lt;Constructor&gt; -->
<g id="node11" class="node" pointer-events="visible" data-name="DispenseMedicine.&lt;Constructor&gt;">

<ellipse fill="#ff9797" stroke="#ff9797" stroke-width="3" cx="141.1" cy="-958" rx="67.55" ry="18" style=""/>
<text text-anchor="middle" x="141.1" y="-953.8" font-family="Times,serif" font-size="14.00" style="">&lt;Constructor&gt;</text>
</g>
<!-- DispenseMedicine.dispense -->
<g id="node12" class="node" pointer-events="visible" data-name="DispenseMedicine.dispense">

<ellipse fill="#ff9797" stroke="#ff9797" stroke-width="3" cx="141.1" cy="-904" rx="44.09" ry="18" style=""/>
<text text-anchor="middle" x="141.1" y="-899.8" font-family="Times,serif" font-size="14.00" style="">dispense</text>
</g>
<!-- Medicine.updateMedicineStatus -->
<g id="node23" class="node" pointer-events="visible" data-name="Medicine.updateMedicineStatus">

<ellipse fill="#ff9797" stroke="#ff9797" stroke-width="3" cx="399.05" cy="-536" rx="96.71" ry="18" style=""/>
<text text-anchor="middle" x="399.05" y="-531.8" font-family="Times,serif" font-size="14.00" style="">updateMedicineStatus</text>
</g>
<!-- DispenseMedicine.dispense&#45;&gt;Medicine.updateMedicineStatus -->
<g id="edge2" class="edge" data-name="DispenseMedicine.dispense-&gt;Medicine.updateMedicineStatus">

<path fill="none" stroke="white" stroke-width="2" d="M185.63,-907.62C215.18,-907.47 252.67,-901.71 274.19,-877 320.11,-824.27 249.68,-616.92 294.19,-563 297.34,-559.18 300.96,-555.87 304.9,-552.99" style=""/>
<polygon fill="white" stroke="white" stroke-width="2" points="306.65,-556.03 313.45,-547.91 303.06,-550.01 306.65,-556.03" style=""/>
</g>
<!-- DispenseMedicine.getDispenseDetails -->
<g id="node13" class="node" pointer-events="visible" data-name="DispenseMedicine.getDispenseDetails">

<ellipse fill="#ff9797" stroke="#ff9797" stroke-width="3" cx="141.1" cy="-850" rx="85.68" ry="18" style=""/>
<text text-anchor="middle" x="141.1" y="-845.8" font-family="Times,serif" font-size="14.00" style="">getDispenseDetails</text>
</g>
<!-- DispenseMedicine.payToPharmacy -->
<g id="node14" class="node" pointer-events="visible" data-name="DispenseMedicine.payToPharmacy">

<ellipse fill="#ffbdb9" stroke="brown" stroke-width="3" cx="141.1" cy="-796" rx="74.14" ry="18" style=""/>
<text text-anchor="middle" x="141.1" y="-791.8" font-family="Times,serif" font-size="14.00" style="">payToPharmacy</text>
</g>
<!-- DispenseMedicine.addPharmacy -->
<g id="node15" class="node" pointer-events="visible" data-name="DispenseMedicine.addPharmacy">

<ellipse fill="#ff9797" stroke="#ff9797" stroke-width="3" cx="141.1" cy="-742" rx="63.69" ry="18" style=""/>
<text text-anchor="middle" x="141.1" y="-737.8" font-family="Times,serif" font-size="14.00" style="">addPharmacy</text>
</g>
<!-- DispenseMedicine.onlyOwner -->
<g id="node16" class="node" pointer-events="visible" data-name="DispenseMedicine.onlyOwner">

<polygon fill="#edad56" stroke="#1bc6a6" stroke-width="3" points="200.04,-676.54 200.04,-691.46 165.51,-702 116.68,-702 82.15,-691.46 82.15,-676.54 116.68,-666 165.51,-666 200.04,-676.54" style=""/>
<polygon fill="none" stroke="#1bc6a6" stroke-width="3" points="204.04,-673.58 204.04,-694.42 166.11,-706 116.08,-706 78.15,-694.42 78.15,-673.58 116.08,-662 166.11,-662 204.04,-673.58" style=""/>
<text text-anchor="middle" x="141.1" y="-679.8" font-family="Times,serif" font-size="14.00" style="">onlyOwner</text>
</g>
<!-- DispenseMedicine.onlyPharmacy -->
<g id="node17" class="node" pointer-events="visible" data-name="DispenseMedicine.onlyPharmacy">

<polygon fill="#edad56" stroke="#1bc6a6" stroke-width="3" points="213.25,-614.54 213.25,-629.46 170.98,-640 111.21,-640 68.94,-629.46 68.94,-614.54 111.21,-604 170.98,-604 213.25,-614.54" style=""/>
<polygon fill="none" stroke="#1bc6a6" stroke-width="3" points="217.24,-611.42 217.24,-632.58 171.47,-644 110.72,-644 64.95,-632.58 64.95,-611.42 110.72,-600 171.47,-600 217.24,-611.42" style=""/>
<text text-anchor="middle" x="141.1" y="-617.8" font-family="Times,serif" font-size="14.00" style="">onlyPharmacy</text>
</g>
<!-- DispenseMedicine.uniqueDispense -->
<g id="node18" class="node" pointer-events="visible" data-name="DispenseMedicine.uniqueDispense">

<polygon fill="#edad56" stroke="#1bc6a6" stroke-width="3" points="220.01,-552.54 220.01,-567.46 173.78,-578 108.41,-578 62.18,-567.46 62.18,-552.54 108.41,-542 173.78,-542 220.01,-552.54" style=""/>
<polygon fill="none" stroke="#1bc6a6" stroke-width="3" points="224.02,-549.36 224.02,-570.64 174.24,-582 107.95,-582 58.17,-570.64 58.17,-549.36 107.95,-538 174.24,-538 224.02,-549.36" style=""/>
<text text-anchor="middle" x="141.1" y="-555.8" font-family="Times,serif" font-size="14.00" style="">uniqueDispense</text>
</g>
<!-- DispenseMedicine.onlyPaitentTodispense -->
<g id="node19" class="node" pointer-events="visible" data-name="DispenseMedicine.onlyPaitentTodispense">

<polygon fill="#edad56" stroke="#1bc6a6" stroke-width="3" points="248.43,-490.54 248.43,-505.46 185.55,-516 96.64,-516 33.77,-505.46 33.77,-490.54 96.64,-480 185.55,-480 248.43,-490.54" style=""/>
<polygon fill="none" stroke="#1bc6a6" stroke-width="3" points="252.43,-487.16 252.43,-508.84 185.89,-520 96.3,-520 29.76,-508.84 29.76,-487.16 96.3,-476 185.89,-476 252.43,-487.16" style=""/>
<text text-anchor="middle" x="141.1" y="-493.8" font-family="Times,serif" font-size="14.00" style="">onlyPaitentTodispense</text>
</g>
<!-- DispenseMedicine.onlyPharmacyTodispense -->
<g id="node20" class="node" pointer-events="visible" data-name="DispenseMedicine.onlyPharmacyTodispense">

<polygon fill="#edad56" stroke="#1bc6a6" stroke-width="3" points="260.96,-428.54 260.96,-443.46 190.75,-454 91.45,-454 21.23,-443.46 21.23,-428.54 91.45,-418 190.75,-418 260.96,-428.54" style=""/>
<polygon fill="none" stroke="#1bc6a6" stroke-width="3" points="264.96,-425.1 264.96,-446.9 191.04,-458 91.15,-458 17.23,-446.9 17.23,-425.1 91.15,-414 191.04,-414 264.96,-425.1" style=""/>
<text text-anchor="middle" x="141.1" y="-431.8" font-family="Times,serif" font-size="14.00" style="">onlyPharmacyTodispense</text>
</g>
<!-- DispenseMedicine.medicineCheck -->
<g id="node21" class="node" pointer-events="visible" data-name="DispenseMedicine.medicineCheck">

<polygon fill="#edad56" stroke="#1bc6a6" stroke-width="3" points="218.01,-366.54 218.01,-381.46 172.96,-392 109.24,-392 64.18,-381.46 64.18,-366.54 109.24,-356 172.96,-356 218.01,-366.54" style=""/>
<polygon fill="none" stroke="#1bc6a6" stroke-width="3" points="222.01,-363.37 222.01,-384.63 173.42,-396 108.77,-396 60.18,-384.63 60.18,-363.37 108.77,-352 173.42,-352 222.01,-363.37" style=""/>
<text text-anchor="middle" x="141.1" y="-369.8" font-family="Times,serif" font-size="14.00" style="">medicineCheck</text>
</g>
<!-- Medicine.validSerialNo -->
<g id="node24" class="node" pointer-events="visible" data-name="Medicine.validSerialNo">

<ellipse fill="#ff9797" stroke="#ff9797" stroke-width="3" cx="399.05" cy="-482" rx="64.85" ry="18" style=""/>
<text text-anchor="middle" x="399.05" y="-477.8" font-family="Times,serif" font-size="14.00" style="">validSerialNo</text>
</g>
<!-- DispenseMedicine.medicineCheck&#45;&gt;Medicine.validSerialNo -->
<g id="edge3" class="edge" data-name="DispenseMedicine.medicineCheck-&gt;Medicine.validSerialNo">

<path fill="none" stroke="white" stroke-width="2" d="M223.3,-380.38C241.65,-385.07 259.91,-392.71 274.19,-405 292.34,-420.61 276.23,-439.18 294.19,-455 302.72,-462.52 313.09,-467.98 323.93,-471.95" style=""/>
<polygon fill="white" stroke="white" stroke-width="2" points="322.82,-475.27 333.41,-474.92 324.91,-468.59 322.82,-475.27" style=""/>
</g>
<!-- Medicine.getMedicineMRP -->
<g id="node25" class="node" pointer-events="visible" data-name="Medicine.getMedicineMRP">

<ellipse fill="#ff9797" stroke="#ff9797" stroke-width="3" cx="399.05" cy="-428" rx="79.9" ry="18" style=""/>
<text text-anchor="middle" x="399.05" y="-423.8" font-family="Times,serif" font-size="14.00" style="">getMedicineMRP</text>
</g>
<!-- DispenseMedicine.medicineCheck&#45;&gt;Medicine.getMedicineMRP -->
<g id="edge4" class="edge" data-name="DispenseMedicine.medicineCheck-&gt;Medicine.getMedicineMRP">

<path fill="none" stroke="white" stroke-width="2" d="M211.36,-388.61C246.72,-396.07 289.71,-405.14 325.53,-412.7" style=""/>
<polygon fill="white" stroke="white" stroke-width="2" points="324.4,-416.04 334.91,-414.68 325.85,-409.19 324.4,-416.04" style=""/>
</g>
<!-- Medicine.getMedicineExpiry -->
<g id="node26" class="node" pointer-events="visible" data-name="Medicine.getMedicineExpiry">

<ellipse fill="#ff9797" stroke="#ff9797" stroke-width="3" cx="399.05" cy="-374" rx="85.67" ry="18" style=""/>
<text text-anchor="middle" x="399.05" y="-369.8" font-family="Times,serif" font-size="14.00" style="">getMedicineExpiry</text>
</g>
<!-- DispenseMedicine.medicineCheck&#45;&gt;Medicine.getMedicineExpiry -->
<g id="edge5" class="edge" data-name="DispenseMedicine.medicineCheck-&gt;Medicine.getMedicineExpiry">

<path fill="none" stroke="white" stroke-width="2" d="M223.43,-374C247.49,-374 274.09,-374 299.13,-374" style=""/>
<polygon fill="white" stroke="white" stroke-width="2" points="299.03,-377.5 309.03,-374 299.03,-370.5 299.03,-377.5" style=""/>
</g>
<!-- Medicine.&lt;Constructor&gt; -->
<g id="node27" class="node" pointer-events="visible" data-name="Medicine.&lt;Constructor&gt;">

<ellipse fill="#ff9797" stroke="#ff9797" stroke-width="3" cx="399.05" cy="-320" rx="67.55" ry="18" style=""/>
<text text-anchor="middle" x="399.05" y="-315.8" font-family="Times,serif" font-size="14.00" style="">&lt;Constructor&gt;</text>
</g>
<!-- Medicine.addMedicine -->
<g id="node28" class="node" pointer-events="visible" data-name="Medicine.addMedicine">

<ellipse fill="#ff9797" stroke="#ff9797" stroke-width="3" cx="399.05" cy="-266" rx="61.4" ry="18" style=""/>
<text text-anchor="middle" x="399.05" y="-261.8" font-family="Times,serif" font-size="14.00" style="">addMedicine</text>
</g>
<!-- Medicine.getMedicineDetails -->
<g id="node29" class="node" pointer-events="visible" data-name="Medicine.getMedicineDetails">

<ellipse fill="#ff9797" stroke="#ff9797" stroke-width="3" cx="399.05" cy="-212" rx="86.81" ry="18" style=""/>
<text text-anchor="middle" x="399.05" y="-207.8" font-family="Times,serif" font-size="14.00" style="">getMedicineDetails</text>
</g>
<!-- Medicine.addManufacturer -->
<g id="node30" class="node" pointer-events="visible" data-name="Medicine.addManufacturer">

<ellipse fill="#ff9797" stroke="#ff9797" stroke-width="3" cx="399.05" cy="-158" rx="77.55" ry="18" style=""/>
<text text-anchor="middle" x="399.05" y="-153.8" font-family="Times,serif" font-size="14.00" style="">addManufacturer</text>
</g>
<!-- Medicine.onlyManufacturer -->
<g id="node31" class="node" pointer-events="visible" data-name="Medicine.onlyManufacturer">

<polygon fill="#edad56" stroke="#1bc6a6" stroke-width="3" points="486.36,-92.54 486.36,-107.46 435.21,-118 362.88,-118 311.73,-107.46 311.73,-92.54 362.88,-82 435.21,-82 486.36,-92.54" style=""/>
<polygon fill="none" stroke="#1bc6a6" stroke-width="3" points="490.36,-89.28 490.36,-110.72 435.62,-122 362.47,-122 307.74,-110.72 307.74,-89.28 362.47,-78 435.62,-78 490.36,-89.28" style=""/>
<text text-anchor="middle" x="399.05" y="-95.8" font-family="Times,serif" font-size="14.00" style="">onlyManufacturer</text>
</g>
<!-- Medicine.onlyOwner -->
<g id="node32" class="node" pointer-events="visible" data-name="Medicine.onlyOwner">

<polygon fill="#edad56" stroke="#1bc6a6" stroke-width="3" points="457.99,-30.54 457.99,-45.46 423.46,-56 374.63,-56 340.1,-45.46 340.1,-30.54 374.63,-20 423.46,-20 457.99,-30.54" style=""/>
<polygon fill="none" stroke="#1bc6a6" stroke-width="3" points="461.99,-27.58 461.99,-48.42 424.06,-60 374.03,-60 336.1,-48.42 336.1,-27.58 374.03,-16 424.06,-16 461.99,-27.58" style=""/>
<text text-anchor="middle" x="399.05" y="-33.8" font-family="Times,serif" font-size="14.00" style="">onlyOwner</text>
</g>
<!-- key -->
<g id="node33" class="node" pointer-events="visible" data-name="key">

<polygon fill="#edad56" stroke="none" stroke-width="3" points="206.1,-1724 76.1,-1724 76.1,-1636 206.1,-1636 206.1,-1724" style=""/>
<text text-anchor="start" x="125.73" y="-1705.4" font-family="Times,serif" font-size="14.00" style="">Internal Call</text>
<text text-anchor="start" x="121.84" y="-1685.4" font-family="Times,serif" font-size="14.00" style="">External Call</text>
<text text-anchor="start" x="99.3" y="-1665.4" font-family="Times,serif" font-size="14.00" style="">Defined Contract</text>
<text text-anchor="start" x="85.7" y="-1645.4" font-family="Times,serif" font-size="14.00" style="">Undefined Contract</text>
</g>
<!-- key2 -->
<g id="node34" class="node" pointer-events="visible" data-name="key2">

<polygon fill="#edad56" stroke="none" stroke-width="3" points="426.05,-1724 372.05,-1724 372.05,-1636 426.05,-1636 426.05,-1724" style=""/>
<text text-anchor="start" x="389.05" y="-1705.4" font-family="Times,serif" font-size="14.00" style="">   </text>
<text text-anchor="start" x="389.05" y="-1685.4" font-family="Times,serif" font-size="14.00" style="">   </text>
<polygon fill="#445773" stroke="none" points="387.05,-1660 387.05,-1680 412.05,-1680 412.05,-1660 387.05,-1660" style=""/>
<text text-anchor="start" x="389.05" y="-1665.4" font-family="Times,serif" font-size="14.00" style="">   </text>
<polygon fill="none" stroke="#e8726d" points="389.05,-1642 389.05,-1658 410.05,-1658 410.05,-1642 389.05,-1642" style=""/>
</g>
<!-- key&#45;&gt;key2 -->
<g id="edge6" class="edge" data-name="key-&gt;key2">

<path fill="none" stroke="#1bc6a6" stroke-width="2" d="M199.1,-1710C277.8,-1710 300.59,-1710 373.4,-1710" style=""/>
<polygon fill="#1bc6a6" stroke="#1bc6a6" stroke-width="2" points="373.02,-1713.5 383.02,-1710 373.02,-1706.5 373.02,-1713.5" style=""/>
</g>
<!-- key&#45;&gt;key2 -->
<g id="edge7" class="edge" data-name="key-&gt;key2">

<path fill="none" stroke="white" stroke-width="2" d="M199.1,-1690C277.8,-1690 300.59,-1690 373.4,-1690" style=""/>
<polygon fill="white" stroke="white" stroke-width="2" points="373.02,-1693.5 383.02,-1690 373.02,-1686.5 373.02,-1693.5" style=""/>
</g>
</g>
</svg>